<?xml version="1.0" encoding="UTF-8" standalone="no"?>
<svg xmlns:dc="http://purl.org/dc/elements/1.1/" xmlns:cc="http://creativecommons.org/ns#"
  xmlns:rdf="http://www.w3.org/1999/02/22-rdf-syntax-ns#" xmlns:svg="http://www.w3.org/2000/svg"
  xmlns="http://www.w3.org/2000/svg" xmlns:sodipodi="http://sodipodi.sourceforge.net/DTD/sodipodi-0.dtd"
  xmlns:inkscape="http://www.inkscape.org/namespaces/inkscape" version="1.1" id="svg2" xml:space="preserve"
  width="812.59869" height="1058.2679" viewBox="0 0 812.59869 1058.2679" sodipodi:docname="canada-organic.ai">
  <metadata id="metadata8">
    <rdf:RDF>
      <cc:Work rdf:about="">
        <dc:format>image/svg+xml</dc:format>
        <dc:type rdf:resource="http://purl.org/dc/dcmitype/StillImage" />
      </cc:Work>
    </rdf:RDF>
  </metadata>
  <defs id="defs6">
    <clipPath clipPathUnits="userSpaceOnUse" id="clipPath18">
      <path d="M 0,793.701 H 609.449 V 0 H 0 Z" id="path16" />
    </clipPath>
  </defs>
  <sodipodi:namedview pagecolor="#ffffff" bordercolor="#666666" borderopacity="1" objecttolerance="10"
    gridtolerance="10" guidetolerance="10" inkscape:pageopacity="0" inkscape:pageshadow="2" inkscape:window-width="640"
    inkscape:window-height="480" id="namedview4" />
  <g id="g10" inkscape:groupmode="layer" inkscape:label="canada-organic"
    transform="matrix(1.3333333,0,0,-1.3333333,0,1058.268)">
    <g id="g12">
      <g id="g14" clip-path="url(#clipPath18)">
        <g id="g20" transform="translate(240.667,427.0342)">
          <path d="M 0,0 C 0,0 54.001,28 113.667,1.667 113.667,1.667 89,-1.667 46,-26 46,-26 20.333,-4.333 0,0"
            style="fill:#000000;fill-opacity:1;fill-rule:nonzero;stroke:none" id="path22" />
        </g>
        <g id="g24" transform="translate(477.8516,425.9648)">
          <path
            d="m 0,0 1.482,1.403 c -171.333,21.333 -214.667,-66.334 -214.667,-66.334 h -19.667 c 6.333,13.666 34,35.334 34,35.334 -52.785,48.437 -136.792,34.116 -148.055,31.926 0,0 -1.531,0.252 -1.531,-0.23 0,-96.726 78.413,-175.138 175.138,-175.138 96.343,0 174.506,77.795 175.123,173.992 z"
            style="fill:#000000;fill-opacity:1;fill-rule:nonzero;stroke:none" id="path26" />
        </g>
        <g id="g28" transform="translate(179,434.0347)">
          <path
            d="m 0,0 -20.333,18 c 0,0 22.333,2.667 12.666,23 -9.666,20.333 -9.666,30 -9.666,30 l 34,-5.333 c 0,0 6.666,-1.667 8.666,4.666 2,6.334 8.667,18 8.667,18 L 66.667,54 c 0,0 6.5,-9.167 11.666,-4 C 83.5,55.167 79,61.333 79,61.333 L 60.667,130.667 88,118 c 0,0 5.333,-4.667 10.667,5.667 5.333,10.333 24,43.666 24,43.666 L 146,123 c 0,0 2.334,-9.334 12.667,-4.667 C 169,123 184,131.667 184,131.667 l -18,-72 c 0,0 -3.333,-8.334 1.667,-10 5,-1.667 10.167,3.5 10.167,3.5 L 212.5,87.833 219.334,70 c 0,0 0.667,-7 11,-4.333 10.333,2.666 33.666,6 33.666,6 L 251.667,35 c 0,0 -5.667,-11.667 12,-16.333 L 245.5,0.5 c 0,0 -31.329,2.026 -52.166,-2.167 0,0 -37.667,16.667 -75.001,16.667 -37.333,0 -70,-19.333 -70,-19.333 0,0 -30.302,6.688 -48.333,4.333"
            style="fill:#000000;fill-opacity:1;fill-rule:nonzero;stroke:none" id="path30" />
        </g>
        <g id="g32" transform="translate(303.417,142.2002)">
          <path
            d="m 0,0 c -157.769,0 -285.667,127.896 -285.667,285.668 0,157.768 127.898,285.666 285.667,285.666 157.769,0 285.665,-127.898 285.665,-285.666 C 285.665,127.896 157.769,0 0,0 M 0,581 C -163.108,581 -295.333,448.774 -295.333,285.668 -295.333,122.559 -163.108,-9.666 0,-9.666 c 163.107,0 295.331,132.225 295.331,295.334 C 295.331,448.774 163.107,581 0,581"
            style="fill:#000000;fill-opacity:1;fill-rule:nonzero;stroke:none" id="path34" />
        </g>
        <g id="g36" transform="translate(303.417,233.1172)">
          <path
            d="m 0,0 c -107.742,0 -195.083,87.342 -195.083,195.083 0,107.742 87.341,195.084 195.083,195.084 107.741,0 195.083,-87.342 195.083,-195.084 C 195.083,87.342 107.741,0 0,0 m 0,399.917 c -113.218,0 -205,-91.782 -205,-205 0,-113.219 91.782,-205 205,-205 113.218,0 204.999,91.781 204.999,205 0,113.218 -91.781,205 -204.999,205"
            style="fill:#000000;fill-opacity:1;fill-rule:nonzero;stroke:none" id="path38" />
        </g>
        <g id="g40" transform="translate(220.6797,222.4609)">
          <path
            d="m 0,0 c 5.729,-2.181 10.315,-5.763 12.935,-11.703 2.232,-5.156 1.76,-11.403 -0.565,-17.509 -2.043,-5.366 -4.525,-9.082 -8.27,-12.104 -6.49,-5.227 -14.37,-5.688 -22.497,-2.594 -4.73,1.801 -9.257,4.936 -10.661,7.659 l 8.163,6.214 c 1.502,-2.266 3.528,-3.955 6.06,-4.919 2.065,-0.786 4.185,-1.028 5.83,-0.313 3.087,1.296 4.665,3.238 6.591,8.295 2.701,7.093 3.659,10.612 2.525,13.445 -0.898,2.248 -2.43,4.032 -4.895,4.97 -2.998,1.141 -5.655,1.376 -9.075,0.206 l -2.265,9.478 C -12.229,2.537 -6.795,2.587 0,0"
            style="fill:#000000;fill-opacity:1;fill-rule:nonzero;stroke:none" id="path42" />
        </g>
        <g id="g44" transform="translate(173.5317,216.0645)">
          <path
            d="m 0,0 c -0.641,-2.006 -1.747,-4.5 -2.58,-6.002 1.016,1.39 2.627,3.345 4.974,5.546 l 5.624,5.38 -5.475,3.344 z m 7.518,26.262 -2.419,-8.884 10.038,-6.131 6.921,6.135 11.437,-6.986 -37.6,-30.931 -11.315,6.91 11.135,47.095 z"
            style="fill:#000000;fill-opacity:1;fill-rule:nonzero;stroke:none" id="path46" />
        </g>
        <g id="g48" transform="translate(147.9644,269.2539)">
          <path
            d="m 0,0 -4.516,-17.649 c -0.687,-2.612 -1.849,-6.043 -3.098,-8.943 1.01,1.496 3.584,4.871 7.463,9.014 l 8.84,9.442 8.846,-8.283 -31.438,-33.575 -8.95,8.38 4.172,17.7 c 0.628,2.757 1.746,6.141 2.981,9.233 -1.589,-2.218 -4.649,-5.591 -6.724,-7.807 l -9.743,-10.406 -8.845,8.284 31.438,33.575 z"
            style="fill:#000000;fill-opacity:1;fill-rule:nonzero;stroke:none" id="path50" />
        </g>
        <g id="g52" transform="translate(100.1147,285.3066)">
          <path
            d="m 0,0 c -1.384,-1.587 -3.39,-3.438 -4.75,-4.485 1.484,0.873 3.738,2.027 6.766,3.116 L 9.314,1.337 5.616,6.578 Z m 17.324,21.119 -5.746,-7.194 6.78,-9.611 8.788,2.884 7.725,-10.949 -46.79,-13.468 -7.644,10.833 28.916,38.804 z"
            style="fill:#000000;fill-opacity:1;fill-rule:nonzero;stroke:none" id="path54" />
        </g>
        <g id="g56" transform="translate(67.4956,322.8896)">
          <path
            d="m 0,0 1.585,-3.585 24.207,10.702 -1.73,3.911 c -1.441,3.259 -4.104,5.2 -15.753,0.049 C -1.47,6.753 -1.556,3.521 0,0 m 21.99,26.321 c 4.468,-1.454 7.953,-4.277 10.663,-10.404 L 39.945,-0.575 -2.128,-19.176 -9.219,-3.141 c -1.384,3.129 -2.929,7.278 -2.189,11.969 1.043,6.617 5.829,11.461 14.4,15.25 6.52,2.883 12.655,4.349 18.998,2.243"
            style="fill:#000000;fill-opacity:1;fill-rule:nonzero;stroke:none" id="path58" />
        </g>
        <g id="g60" transform="translate(61.0479,374.5654)">
          <path
            d="m 0,0 c -1.89,-0.929 -4.456,-1.86 -6.116,-2.3 1.706,0.231 4.232,0.424 7.446,0.258 L 9.108,-2.368 7.725,3.896 Z m 24.148,12.779 -8.083,-4.413 2.538,-11.483 9.221,-0.737 2.892,-13.084 -48.369,5.667 -2.861,12.944 41.678,24.607 z"
            style="fill:#000000;fill-opacity:1;fill-rule:nonzero;stroke:none" id="path62" />
        </g>
        <g id="g64" transform="translate(59.3457,449.9448)">
          <path
            d="m 0,0 c -11.464,0.672 -14.373,-1.585 -14.694,-7.064 -0.337,-5.763 5.121,-8.511 13.884,-9.024 11.728,-0.687 14.807,2.203 15.115,7.468 C 14.622,-3.212 11.794,-0.691 0,0 m -0.325,-30.396 c -16.34,0.958 -24.339,11.136 -23.572,24.229 0.987,16.862 13.2,21.073 23.281,20.482 C 12.561,13.543 24.62,8.339 23.583,-9.378 22.741,-23.75 13.445,-31.202 -0.325,-30.396"
            style="fill:#000000;fill-opacity:1;fill-rule:nonzero;stroke:none" id="path66" />
        </g>
        <g id="g68" transform="translate(53.6777,492.353)">
          <path
            d="m 0,0 9.033,-2.5 0.971,3.503 C 11.165,5.193 9.719,7.146 6.729,7.974 3.549,8.854 2.017,7.282 0.952,3.435 Z M 37.937,0.963 24.144,-0.618 C 19.049,-1.205 18.172,-2.146 17.43,-4.825 l 17.558,-4.86 -3.406,-12.296 -44.339,12.273 4.567,16.487 c 3.9,14.082 10.436,17.155 17.815,15.112 7.634,-2.113 10.315,-7.515 9.646,-13.394 0.902,1.525 3.489,2.954 6.103,3.487 3.427,0.753 12.756,2.535 16.502,3.199 z"
            style="fill:#000000;fill-opacity:1;fill-rule:nonzero;stroke:none" id="path70" />
        </g>
        <g id="g72" transform="translate(107.918,530.2627)">
          <path
            d="m 0,0 c -3.799,-7.344 -8.587,-11.287 -15.327,-12.536 -5.408,-0.974 -9.958,-0.146 -15.527,2.735 -8.735,4.517 -14.307,12.133 -14.026,21.296 0.12,4.111 1.033,7.17 3.096,11.158 2.98,5.761 7.522,10.233 13.116,12.716 l 3.266,-9.633 c -3.323,-1.251 -6.08,-3.998 -7.816,-7.353 -3.078,-5.951 -0.512,-10.327 8.634,-15.057 8.148,-4.215 13.478,-3.68 16.195,1.574 0.753,1.456 1.389,2.973 1.542,4.418 l -6.448,3.335 -2.784,-5.381 -8.979,3.04 9.3,17.979 L 4.174,17.982 C 4.427,11.432 2.947,5.698 0,0"
            style="fill:#000000;fill-opacity:1;fill-rule:nonzero;stroke:none" id="path74" />
        </g>
        <g id="g76" transform="translate(110.6147,583.3652)">
          <path
            d="m 0,0 c -1.907,0.893 -4.24,2.311 -5.622,3.33 1.248,-1.186 2.98,-3.035 4.861,-5.645 l 4.614,-6.27 4.019,5 z m 25.079,-10.832 -8.5,3.541 -7.37,-9.167 5.196,-7.652 -8.397,-10.445 -25.847,41.266 8.307,10.334 45.276,-17.099 z"
            style="fill:#000000;fill-opacity:1;fill-rule:nonzero;stroke:none" id="path78" />
        </g>
        <g id="g80" transform="translate(166.6235,601.8848)">
          <path
            d="m 0,0 -16.928,6.739 c -2.502,1.016 -5.757,2.608 -8.472,4.219 1.354,-1.193 4.373,-4.179 7.985,-8.557 l 8.234,-9.977 -9.346,-7.712 -29.28,35.48 9.456,7.803 17.022,-6.405 c 2.654,-0.976 5.867,-2.518 8.776,-4.139 -1.997,1.86 -4.95,5.327 -6.883,7.669 l -9.073,10.995 9.345,7.712 29.28,-35.48 z"
            style="fill:#000000;fill-opacity:1;fill-rule:nonzero;stroke:none" id="path82" />
        </g>
        <g id="g84" transform="translate(186.5728,615.8862)">
          <path d="M 0,0 -23.11,39.776 -11.832,46.33 11.278,6.554 Z"
            style="fill:#000000;fill-opacity:1;fill-rule:nonzero;stroke:none" id="path86" />
        </g>
        <g id="g88" transform="translate(223.3926,633.3423)">
          <path
            d="m 0,0 c -5.25,-2.156 -10.664,-2.524 -16.326,0.145 -4.887,2.345 -8.695,7.274 -11.177,13.318 -2.181,5.311 -2.981,9.692 -2.485,14.39 0.869,8.134 5.807,13.657 13.255,16.716 4.335,1.78 9.415,2.439 12.146,1.349 l -1.33,-9.964 c -2.495,0.688 -4.958,0.604 -7.277,-0.349 -1.893,-0.777 -3.463,-1.992 -4.086,-3.604 -1.198,-2.988 -0.967,-5.462 1.089,-10.468 2.883,-7.021 4.567,-10.254 7.19,-11.602 2.081,-1.072 4.278,-1.383 6.537,-0.455 2.747,1.128 4.669,2.702 6.172,5.816 l 7.76,-5.517 C 9.81,6.169 6.227,2.557 0,0"
            style="fill:#000000;fill-opacity:1;fill-rule:nonzero;stroke:none" id="path90" />
        </g>
        <g id="g92" transform="translate(339.1816,682.8955)">
          <path
            d="m 0,0 -1.213,-7.893 5.002,-0.769 c 3.029,-0.466 4.387,1.329 4.748,3.677 0.36,2.348 -0.717,3.782 -3.676,4.237 z m 2.014,-17.871 -4.65,0.715 -1.384,-9.002 4.791,-0.737 c 3.17,-0.487 4.799,1.199 5.231,4.004 0.351,2.283 -0.113,4.424 -3.988,5.02 m -0.201,-19.133 -19.937,3.066 6.987,45.466 21.77,-3.347 c 7.115,-1.095 12.461,-4.788 11.178,-13.138 -0.632,-4.109 -3.125,-8.132 -8.8,-8.929 4.609,-1.911 8.285,-6.149 7.443,-11.628 -1.273,-8.285 -7.439,-13.213 -18.641,-11.49"
            style="fill:#000000;fill-opacity:1;fill-rule:nonzero;stroke:none" id="path94" />
        </g>
        <g id="g96" transform="translate(364.499,640.6118)">
          <path d="M 0,0 13.954,43.839 26.383,39.882 12.429,-3.957 Z"
            style="fill:#000000;fill-opacity:1;fill-rule:nonzero;stroke:none" id="path98" />
        </g>
        <g id="g100" transform="translate(422.1816,641.8115)">
          <path
            d="M 0,0 C 5.238,10.219 4.347,13.792 -0.538,16.295 -5.676,18.929 -10.392,15.042 -14.396,7.231 -19.754,-3.223 -18.352,-7.206 -13.657,-9.612 -8.837,-12.083 -5.389,-10.513 0,0 M -27.684,12.56 C -20.218,27.125 -7.678,30.338 3.994,24.355 19.027,16.648 17.955,3.774 13.349,-5.211 7.327,-16.958 -2.299,-25.892 -18.093,-17.795 c -12.813,6.568 -15.883,18.08 -9.591,30.355"
            style="fill:#000000;fill-opacity:1;fill-rule:nonzero;stroke:none" id="path102" />
        </g>
        <g id="g104" transform="translate(451.8096,592.7705)">
          <path d="M 0,0 -21.592,16.822 6.688,53.11 16.864,45.181 -5.41,16.599 7.916,6.216 Z"
            style="fill:#000000;fill-opacity:1;fill-rule:nonzero;stroke:none" id="path106" />
        </g>
        <g id="g108" transform="translate(492.7207,583.0596)">
          <path
            d="M 0,0 C 8.623,7.585 9.104,11.236 5.479,15.356 1.667,19.69 -4.146,17.805 -10.737,12.006 -19.56,4.247 -19.716,0.027 -16.232,-3.933 -12.655,-8 -8.871,-7.804 0,0 M -21.144,21.837 C -8.853,32.648 3.992,31.038 12.653,21.192 23.811,8.509 18.088,-3.074 10.505,-9.744 c -9.912,-8.718 -22.146,-13.499 -33.867,-0.174 -9.509,10.809 -8.14,22.644 2.218,31.755"
            style="fill:#000000;fill-opacity:1;fill-rule:nonzero;stroke:none" id="path110" />
        </g>
        <g id="g112" transform="translate(497.0449,533.7329)">
          <path
            d="m 0,0 c -3.932,7.011 -4.513,13.041 -1.791,19.254 2.207,4.972 5.42,8.284 10.89,11.351 8.578,4.811 17.946,5.378 25.332,0.304 3.317,-2.271 5.326,-4.64 7.461,-8.448 3.084,-5.5 4.237,-11.606 3.169,-17.528 l -9.746,2.4 c 0.819,3.398 0.093,7.123 -1.703,10.326 -3.186,5.681 -8.216,5.879 -17.197,0.842 C 8.413,14.013 5.888,9.34 8.7,4.323 9.479,2.933 10.374,1.607 11.479,0.717 L 17.812,4.269 14.931,9.406 22.429,15.2 32.053,-1.965 12.479,-12.943 C 6.946,-9.689 3.05,-5.439 0,0"
            style="fill:#000000;fill-opacity:1;fill-rule:nonzero;stroke:none" id="path114" />
        </g>
        <g id="g116" transform="translate(509.0566,510.5215)">
          <path d="M 0,0 43.115,16.027 47.533,4.14 4.417,-11.887 Z"
            style="fill:#000000;fill-opacity:1;fill-rule:nonzero;stroke:none" id="path118" />
        </g>
        <g id="g120" transform="translate(545.2666,467.3203)">
          <path
            d="M 0,0 C 11.268,2.222 13.531,5.07 12.499,10.306 11.412,15.813 5.452,17.04 -3.161,15.341 -14.688,13.067 -16.961,9.582 -15.968,4.55 -14.949,-0.617 -11.592,-2.286 0,0 m -28.551,-20.677 c -0.304,0.859 -0.506,1.878 -0.747,3.102 -1.596,8.092 3.738,11.404 4.36,19.509 -3.072,15.57 4.265,24.081 18.641,26.916 15.218,3.001 25.461,-4.585 27.929,-17.096 2.682,-13.599 -4.315,-22.466 -17.526,-25.072 -12.951,-2.554 -19.545,0.525 -23.359,4.505 0.062,-3.378 -2.709,-6.043 -1.663,-11.347 0.134,-0.68 0.255,-1.292 0.402,-2.04 z"
            style="fill:#000000;fill-opacity:1;fill-rule:nonzero;stroke:none" id="path122" />
        </g>
        <g id="g124" transform="translate(538.9424,405.2539)">
          <path
            d="m 0,0 c -3.96,0.066 -5.739,0.234 -7.57,1.304 -3.794,2.073 -7.269,7.537 -7.111,17.099 0.126,7.622 2.193,12.855 6.002,15.703 2.538,1.76 3.669,2.295 9.807,2.193 l 31.281,-0.521 -0.206,-12.472 -30.027,0.5 c -4.224,0.07 -7.085,-1.268 -7.156,-5.634 -0.074,-4.434 2.281,-5.721 6.769,-5.796 L 32.014,11.873 31.81,-0.53 Z"
            style="fill:#000000;fill-opacity:1;fill-rule:nonzero;stroke:none" id="path126" />
        </g>
        <g id="g128" transform="translate(523.0762,394.6582)">
          <path
            d="m 0,0 45.03,-9.391 -5.729,-27.475 -9.313,2.862 3.013,14.45 -7.559,1.577 -2.462,-11.804 -9.173,1.913 2.461,11.805 -9.174,1.913 -3.38,-16.214 -9.627,2.008 z"
            style="fill:#000000;fill-opacity:1;fill-rule:nonzero;stroke:none" id="path130" />
        </g>
        <g id="g132" transform="translate(500.8564,328.1572)">
          <path
            d="m 0,0 c 2.575,5.375 6.457,9.509 12.54,11.513 5.277,1.698 11.443,0.665 17.336,-2.159 5.179,-2.481 8.688,-5.238 11.42,-9.16 4.722,-6.796 4.615,-14.506 0.963,-22.131 -2.126,-4.437 -5.562,-8.554 -8.365,-9.67 l -5.582,8.514 c 2.357,1.253 4.178,3.071 5.316,5.446 0.928,1.937 1.32,3.977 0.727,5.644 -1.065,3.123 -2.878,4.838 -7.759,7.176 -6.845,3.28 -10.269,4.536 -13.161,3.693 C 11.14,-1.802 9.259,-3.129 8.151,-5.441 6.805,-8.254 6.381,-10.818 7.297,-14.254 l -9.568,-1.333 C -3.394,-11.668 -3.054,-6.375 0,0"
            style="fill:#000000;fill-opacity:1;fill-rule:nonzero;stroke:none" id="path134" />
        </g>
        <g id="g136" transform="translate(504.0479,281.5576)">
          <path
            d="M 0,0 C 1.942,-0.805 4.338,-2.108 5.77,-3.058 4.46,-1.94 2.63,-0.19 0.603,2.301 L -4.36,8.279 -8.012,3.224 Z m -25.484,9.691 8.63,-3.157 6.694,9.271 -5.627,7.314 7.628,10.562 28.199,-39.525 -7.547,-10.449 -45.848,15.085 z"
            style="fill:#000000;fill-opacity:1;fill-rule:nonzero;stroke:none" id="path138" />
        </g>
        <g id="g140" transform="translate(450.1035,261.0879)">
          <path
            d="m 0,0 17.106,-5.929 c 2.53,-0.895 5.839,-2.328 8.621,-3.801 -1.414,1.119 -4.59,3.936 -8.447,8.101 l -8.79,9.493 8.644,8.005 31.258,-33.757 -8.746,-8.099 -17.174,5.594 c -2.677,0.851 -5.942,2.235 -8.914,3.711 2.092,-1.751 5.238,-5.045 7.301,-7.273 l 9.687,-10.461 -8.644,-8.005 -31.257,33.757 z"
            style="fill:#000000;fill-opacity:1;fill-rule:nonzero;stroke:none" id="path142" />
        </g>
        <g id="g144" transform="translate(431.7803,215.1328)">
          <path
            d="M 0,0 C 1.48,-1.493 3.187,-3.621 4.141,-5.05 3.364,-3.513 2.353,-1.192 1.445,1.889 L -0.821,9.32 -6.145,6.068 Z m -19.762,18.786 6.74,-6.246 9.758,5.962 -2.363,8.92 11.119,6.793 10.735,-47.349 -11,-6.72 -36.462,31.63 z"
            style="fill:#000000;fill-opacity:1;fill-rule:nonzero;stroke:none" id="path146" />
        </g>
        <g id="g148" transform="translate(393.4307,185.5488)">
          <path
            d="M 0,0 3.573,1.327 -5.642,26.139 -9.54,24.691 C -12.788,23.485 -14.813,20.974 -10.378,9.031 -6.655,-0.992 -3.509,-1.303 0,0 m -24.548,23.695 c 1.641,4.341 4.568,7.61 10.675,9.878 L 2.564,39.676 18.581,-3.45 2.599,-9.385 c -3.12,-1.158 -7.24,-2.406 -11.774,-1.344 -6.397,1.498 -10.877,6.593 -14.14,15.379 -2.482,6.683 -3.602,12.885 -1.233,19.045"
            style="fill:#000000;fill-opacity:1;fill-rule:nonzero;stroke:none" id="path150" />
        </g>
        <g id="g152" transform="translate(342.832,182.4834)">
          <path
            d="M 0,0 C 0.809,-1.941 1.588,-4.557 1.933,-6.238 1.793,-4.522 1.729,-1.991 2.05,1.204 L 2.751,8.943 -3.404,7.937 Z m -11.226,24.85 3.89,-8.327 11.284,1.846 1.172,9.153 12.857,2.103 -7.896,-47.907 -12.721,-2.081 -21.853,43.043 z"
            style="fill:#000000;fill-opacity:1;fill-rule:nonzero;stroke:none" id="path154" />
        </g>
        <g id="g156" transform="translate(287.3335,669.3677)">
          <path
            d="m 0,0 c 0,-6.075 -4.925,-11 -11,-11 -6.075,0 -11,4.925 -11,11 0,6.075 4.925,11 11,11 C -4.925,11 0,6.075 0,0"
            style="fill:#000000;fill-opacity:1;fill-rule:nonzero;stroke:none" id="path158" />
        </g>
        <g id="g160" transform="translate(287.3335,184.0352)">
          <path
            d="m 0,0 c 0,-6.076 -4.925,-11 -11,-11 -6.075,0 -11,4.924 -11,11 0,6.074 4.925,11 11,11 C -4.925,11 0,6.074 0,0"
            style="fill:#000000;fill-opacity:1;fill-rule:nonzero;stroke:none" id="path162" />
        </g>
      </g>
    </g>
  </g>
</svg>