<?xml version="1.0" encoding="UTF-8" standalone="no"?>
<!-- Created with Inkscape (http://www.inkscape.org/) -->

<svg xmlns:dc="http://purl.org/dc/elements/1.1/" xmlns:cc="http://creativecommons.org/ns#"
   xmlns:rdf="http://www.w3.org/1999/02/22-rdf-syntax-ns#" xmlns:svg="http://www.w3.org/2000/svg"
   xmlns="http://www.w3.org/2000/svg" xmlns:sodipodi="http://sodipodi.sourceforge.net/DTD/sodipodi-0.dtd"
   xmlns:inkscape="http://www.inkscape.org/namespaces/inkscape" id="svg2889" sodipodi:docname="fist.svg"
   viewBox="0 0 652.47708 930.11907" version="1.1" inkscape:version="0.48.4 r9939" width="100%" height="100%">
   <defs id="defs7" />
   <sodipodi:namedview id="base" bordercolor="#666666" inkscape:pageshadow="2" inkscape:window-y="0" pagecolor="#ffffff"
      inkscape:window-maximized="0" inkscape:zoom="0.77108901" inkscape:window-x="0" inkscape:window-height="800"
      showgrid="false" borderopacity="1.0" inkscape:current-layer="layer1" inkscape:cx="370.22191"
      inkscape:cy="664.18332" inkscape:window-width="1280" inkscape:pageopacity="0.0" inkscape:document-units="mm"
      units="mm" fit-margin-top="0" fit-margin-left="0" fit-margin-right="0" fit-margin-bottom="0" />
   <g id="layer1" inkscape:label="Layer 1" inkscape:groupmode="layer" transform="translate(-49.470093,-102.83333)">
      <path style="fill:#000000"
         d="m 244.625,0 c -3.15984,-0.0056875 -6.50335,1.0304 -9.875,3.09375 -6.897,4.2209998 -11.173,8.9565 -22.375,24.6875 C 194.5432,52.82325 189.77355,60.5816 186.15625,70.5 183.72425,77.169 179.3444,83.8533 173,90.5625 c -5.2324,5.5333 -9.98519,11.85555 -10.53125,14.03125 -1.0776,4.294 1.8786,11.3125 4.75,11.3125 0.98,0 6.11435,2.77105 11.40625,6.15625 5.2921,3.3852 10.67285,6.15625 11.96875,6.15625 1.296,0 6.75715,2.3689 12.15625,5.25 5.399,2.8811 13.12045,5.76091 17.15625,6.40625 4.0355,0.6454 9.41925,3.0661 11.96875,5.375 4.73561,3.66452 11.27592,5.11901 17.03125,6.65625 6.28204,1.29034 13.54817,1.1661 16.375,-0.625 1.3144,-0.8328 4.08545,-4.2953 6.15625,-7.6875 2.071,-3.392 9.00065,-13.98845 15.40625,-23.53125 6.4055,-9.543 13.3315,-20.6425 15.375,-24.6875 2.0436,-4.045 4.6079,-7.92654 5.6875,-8.59375 1.951,-1.205 15.65625,-29.6584 15.65625,-32.5 0,-0.8177 -3.7067,-4.8986 -8.25,-9.0625 C 310.7695,41.05475 303.8728,34.6895 300,31.0625 c -3.8727,-3.627 -7.64378,-6.59375 -8.40625,-6.59375 -0.763,0 -6.80775,-3.458 -13.40625,-7.6875 C 271.5886,12.55175 264.26425,8.48954 261.90625,7.75 259.54825,7.0104 255.7441,4.9264 253.4375,3.125 250.7815,1.0508 247.78484,0.0056875 244.625,0 z m 96.28125,62.09375 c -1.3108,0.03862 -2.35273,0.252738 -3,0.71875 -3.0166,2.1719 -4.5484,2.90515 -9.125,4.34375 -1.4911,0.469 -6.31385,7.084 -10.71875,14.6875 -4.4051,7.604 -10.3162,17.6463 -13.125,22.3125 -2.8088,4.666 -7.082,11.82425 -9.5,15.90625 -2.418,4.0823 -6.42185,10.1583 -8.90625,13.5 -11.4471,15.397 -13.1019,28.7461 -3.8125,30.8125 5.867,1.305 54.5843,24.96845 58.875,28.59375 4.00566,3.385 3.8896,9.61125 -0.4375,23.15625 -1.9344,6.056 -3.53125,15.66655 -3.53125,21.34375 0,9.115 2.08439,16.21259 5.15929,16.21259 6.14865,-6.42168 18.04251,-17.69577 26.59071,-26.99384 2.47985,-2.69739 4.04325,-3.74955 7.15625,-8.34375 3.113,-4.594 8.31095,-11.33895 11.53125,-14.96875 3.2202,-3.6298 5.84375,-7.4475 5.84375,-8.5 0,-1.0525 2.77105,-5.1702 6.15625,-9.125 3.3852,-3.9548 6.15625,-8.1945 6.15625,-9.4375 0,-1.2431 2.2196,-4.85425 4.9375,-8.03125 6.4407,-7.528 12.78725,-18.5015 14.53125,-25.125 0.764,-2.902 2.592,-9.55125 4.0625,-14.78125 3.2145,-11.4337 2.11725,-14.2074 -8.21875,-20.6875 -4.069,-2.551 -11.7429,-8.62075 -17.0625,-13.46875 -5.487,-5.0011 -15.31865,-11.3713 -22.71875,-14.75 -7.174,-3.2754 -15.2121,-7.51015 -17.875,-9.40625 -6.46506,-4.603706 -17.28863,-8.136088 -22.96875,-7.96875 z M 138.25,114.53125 c -2.35554,-0.0135 -4.08914,1.14124 -8.03125,3.75 -6.643,4.395 -21.1875,20.8656 -21.1875,24 0,0.7993 -3.21965,4.90205 -7.15625,9.09375 -3.9362,4.191 -9.10045,11.68865 -11.46875,16.65625 -2.3684,4.967 -6.64775,11.9966 -9.53125,15.625 -2.8835,3.6285 -5.25,7.9297 -5.25,9.5625 0,1.6328 -2.0526,4.87395 -4.5625,7.21875 -2.5099,2.3448 -5.79285,6.6609 -7.28125,9.5625 -1.4884,2.9012 -5.565,8.53235 -9.0625,12.53125 -3.4976,3.999 -8.5934,10.7152 -11.3125,14.9375 -2.7191,4.2221 -6.815932,8.71755 -9.21875,13.65625 -2.034975,4.18264 -2.535274,8.83226 -4.28125,13.28125 -1.745976,4.44899 -3.478082,8.53653 -6.21875,13.34375 -2.740668,4.80722 -8.1081,10.162 -10.4375,15.25 -2.3294,5.088 -6.272,11.90745 -8.75,15.15625 -2.478,3.2487 -4.5,7.59785 -4.5,9.65625 0,3.662 25.7943,43.68965 30.875,47.90625 1.4151,1.1745 5.1237,3.40415 8.25,4.96875 9.359269,16.10936 23.463561,29.6597 31.1875,44.53125 5.3413,10.347 12.21315,22.3512 15.28125,26.6875 9.874525,19.29779 31.32498,30.99006 36.59375,45.375 2.752,6.97 14.94225,25.93225 24.21875,37.65625 6.681,8.443 14.33705,20.3345 21.09375,32.8125 2.6513,4.8966 5.9034,10.18245 7.25,11.71875 8.33978,9.515 12.596,28.73145 8.1875,36.96875 -1.9586,3.659 -4.72965,21.47875 -7.21875,46.46875 -0.9505,9.542 -2.49608,18.77225 -3.4375,20.53125 -0.94141,1.759 -1.7298,8.5953 -1.75,15.1875 -0.0202,6.592 -1.2289,17.1507 -2.6875,23.4375 -1.4586,6.287 -3.77025,17.7624 -5.15625,25.5 -1.386,7.738 -3.88145,19.2132 -5.53125,25.5 -3.5601,13.566 -4.12787,41.20931 -4.1948,53.00047 -0.0669,11.79116 -0.48811,21.9403 4.60109,24.1375 50.75996,0.19259 101.52089,0.11976 152.28121,0.14328 83.541,0.0438 136.54915,-0.5625 139.34375,-1.625 4.13447,-1.572 4.53125,-2.57655 4.53125,-12.03125 0,-5.674 1.15495,-14.22085 2.59375,-18.96875 2.06631,-6.819 2.59115,-18.983 2.46875,-57.875 -0.2397,-76.197 1.86735,-134.29575 5.09375,-140.65625 1.472,-2.902 7.31205,-10.5048 12.96875,-16.875 5.9851,-6.7404 7.16936,-10.74289 10.28125,-15.5 3.11189,-4.75711 3.62625,-7.84165 8.40625,-13.03125 18.3325,-19.902 21.28855,-23.9532 22.40625,-30.5625 0.6231,-3.684 2.5682,-10.664 4.3125,-15.5 5.1199,-14.194 7.1061,-21.17305 8.875,-31.09375 0.9161,-5.137 3.22105,-16.66225 5.09375,-25.59375 6.87062,-12.24102 5.45284,-22.14902 7.4859,-33.3641 3.14084,-17.32602 6.30274,-32.9474 7.26405,-52.3234 0.445,-8.9529 -3.31605,-10.0372 -11.96875,-3.4375 -0.58496,0.44617 -1.71875,1.25 -1.71875,1.25 l -10.875,10.28125 c -2.94091,2.78039 -8.12927,8.5625 -9.5312,8.5625 -0.774,0 -7.03055,5.3464 -13.90625,11.875 -18.223,17.3037 -26.75195,24.4925 -31.84375,26.8125 -2.4824,1.1311 -5.8972,4.3683 -7.5625,7.1875 -3.8613,6.5358 -7.30465,6.5084 -10.71875,-0.0937 -1.4856,-2.8729 -4.4588,-6.1482 -6.625,-7.25 -4.788,-2.436 -14.315,-11.11575 -24.625,-22.46875 -1.437,-1.5826 -7.16155,-6.42885 -12.71875,-10.78125 -5.557,-4.3524 -12.671,-10.1037 -15.8125,-12.75 -5.487,-4.6219 -24.3687,-11.72968 -31.6875,-11.9375 -1.9341,-0.0549 -6.66245,-1.2966 -10.53125,-2.75 -23.969,-9.0035 -82.0914,-20.4768 -87.3125,-17.25 -2.9747,1.838 -1.4204,6.97125 3.9375,13.03125 2.9935,3.3857 7.5588,9.3364 10.125,13.25 5.585,8.518 13.92525,18.65675 32.78125,39.71875 19.5588,21.846 26.8641,31.34205 28.125,36.59375 0.5956,2.481 3.3772,9.2593 6.1875,15.0625 2.8104,5.804 6.8101,15.29055 8.875,21.09375 2.065,5.8034 4.85925,12.79305 6.21875,15.53125 1.3595,2.7382 2.46875,6.12665 2.46875,7.53125 0,1.4046 1.9437,6.3879 4.3125,11.0625 2.3687,4.675 5.45435,13.4234 6.84375,19.4375 2.807,12.152 10.0984,21.5381 20.0625,25.8125 3.1434,1.3484 5.71875,3.552 5.71875,4.875 0,3.424 -11.05315,11.3784 -20.03125,14.4375 -4.9223,1.6772 -8.332,4.1623 -9.625,7 -1.37989,3.028 -2.09713,44.92782 -2,67.40625 0.0999,23.12091 2.11861,46.19763 2.65625,69.3125 0.20662,8.88331 3.41505,22.28505 0.21875,26.65625 -2.3128,3.163 -2.49665,3.13545 -3.84375,-0.96875 -0.77366,-2.357 -1.45685,-15.06875 -1.53125,-28.21875 -0.0853,-15.079 -0.8612,-24.8184 -2.125,-26.375 -1.1022,-1.358 -2.15124,-8.79365 -2.3125,-16.53125 -0.675,-32.392 -6.446,-79.17665 -10.75,-87.21875 -0.91503,-1.71 -1.65625,-7.06375 -1.65625,-11.90625 0,-5.1369 -0.9051,-9.38396 -2.1875,-10.1875 -1.209,-0.75751 -10.68325,-1.4125 -21.03125,-1.4375 -21.3981,-0.0517 -28.2255,-2.74635 -15.5625,-6.15625 7.915,-2.131 23.7176,-11.51565 33.125,-19.65625 3.177,-2.7492 6.8706,-5 8.1875,-5 2.463,0 13.3125,-11.309 13.3125,-13.875 0,-2.039 -7.4315,-15.6715 -12.9375,-23.75 -2.5641,-3.762 -4.65625,-7.87405 -4.65625,-9.15625 0,-1.2822 -2.3618,-5.023 -5.25,-8.3125 -5.805,-6.612 -13.86825,-17.68575 -24.53125,-33.71875 -3.8595,-5.803 -9.01035,-13.23205 -11.46875,-16.53125 -2.4584,-3.2991 -4.46875,-6.92595 -4.46875,-8.03125 0,-1.1053 -2.8425,-4.7294 -6.3125,-8.0625 -3.4699,-3.333 -7.8254,-9.0121 -9.6875,-12.625 -1.8621,-3.6128 -5.37565,-7.8613 -7.78125,-9.4375 -2.4056,-1.5762 -4.375,-3.73545 -4.375,-4.78125 0,-2.275 -7.6532,-13.88585 -14.4375,-21.90625 -2.6816,-3.1707 -6.48545,-8.95615 -8.46875,-12.84375 -5.409,-10.602 -19.24355,-28.101 -23.46875,-29.6875 -2.0466,-0.7683 -6.91245,-2.21916 -10.78125,-3.21875 -11.064,-2.858 -18.1775,-5.909 -34.6875,-14.875 -10.115,-5.4929 -17.5267,-8.34375 -21.625,-8.34375 -7.6561,0 -19.0749,-4.5529 -17.5625,-7 0.6103,-0.98747 2.6057,-1.8125 4.4375,-1.8125 6.845,0 11.69155,-4.285 21.53125,-19.125 8.7783,-13.239 10.125,-16.3793 10.125,-23.6875 0,-4.6298 -0.72501,-9.746 -1.59375,-11.375 -2.49407,-4.6763 -3.00735,-13.14621 -0.84375,-13.875 1.083,-0.365 9.8863,7.0937 19.5625,16.5625 9.676,9.468 19.92575,19.207 22.78125,21.625 2.8554,2.418 6.01405,5.905 7.03125,7.75 1.364,2.4736 4.35625,3.54035 11.40625,4.125 21.10631,2.25869 35.05805,-8.99873 51.70526,-8.98224 6.817,0 11.40259,-3.98361 14.20099,-5.36151 2.738,-1.3482 8.6193,-4.0489 13.0625,-6 9.4614,-4.154 13.42635,-10.9125 15.65625,-26.6875 0.7943,-5.6193 2.32023,-11.81025 3.375,-13.78125 1.05477,-1.971 1.90625,-7.53915 1.90625,-12.34375 0,-8.663 -0.084,-8.7938 -10.875,-16.8125 -5.9848,-4.4473 -12.5054,-8.08975 -14.5,-8.09375 -1.9946,-0.004 -7.2101,-2.38715 -11.5625,-5.28125 -4.352,-2.8942 -10.6773,-5.76939 -14.0625,-6.40625 -5.73922,-1.07925 -21.32359,-8.10233 -32.6875,-12.15625 L 219.25,147.125 c -4.2003,-1.4984 -8.42135,-2.67527 -11.75,-4.65625 -13.7295,-8.1707 -18.9226,-10.75 -21.75,-10.75 -1.51,0 -7.7789,-2.77105 -13.9375,-6.15625 -6.1586,-3.3852 -12.4363,-6.125 -13.9375,-6.125 -1.501,0 -6.7591,-1.31455 -11.6875,-2.90625 -3.91142,-1.26332 -6.10541,-1.98949 -7.9375,-2 z m 296.9375,30.9375 c -1.28052,-0.0147 -2.35613,0.1672 -3.0625,0.5625 -1.5614,0.873 -6.1339,8.07555 -10.1875,16.03125 -4.0532,7.956 -9.9034,17.65425 -13,21.53125 -3.0966,3.8773 -7.3561,9.8997 -9.4375,13.375 -2.0815,3.475 -6.146,9.29885 -9.0625,12.96875 -2.9165,3.6699 -5.3125,7.7848 -5.3125,9.125 0,2.482 -7.23925,14.71625 -20.65625,34.90625 C 360.35815,260.15455 357,265.8734 357,266.6875 c 0,0.814 -5.6357,8.9826 -12.5,18.125 -6.864,9.142 -14.52465,20.17885 -17.03125,24.53125 -2.5066,4.3524 -6.43345,10.2068 -8.71875,13 -6.3082,7.71 -4.66025,11.4151 8.34375,18.9375 20.809,12.037 42.38805,22.58675 46.28125,22.59375 2.1107,0.004 7.3976,2.3567 11.75,5.25 4.3527,2.8933 9.6646,5.27725 11.8125,5.28125 4.982,0.01 37.27115,-32.03 45.34375,-45 7.243,-11.637 18.22415,-26.3753 22.84375,-30.625 2.628,-2.4182 7.1806,-7.9601 10.125,-12.3125 2.945,-4.352 9.2134,-12.4139 13.9375,-17.9375 4.7242,-5.524 9.80365,-12.66255 11.28125,-15.84375 1.4777,-3.182 5.40505,-10.08545 8.71875,-15.34375 3.3137,-5.259 7.31975,-12.93955 8.90625,-17.09375 3.6339,-9.517 1.324,-16.2375 -7.9375,-23.0625 -7.229,-5.327 -15.62225,-12.4085 -31.40625,-26.4375 -6.058,-5.3839 -15.0566,-11.9842 -20,-14.6875 -4.9431,-2.7033 -9.87955,-5.62291 -10.96875,-6.46875 -3.05175,-2.36983 -8.75218,-4.081 -12.59375,-4.125 z M 533.96875,234.25 c -3.6507,0.0578 -7.61075,5.146 -24.875,26.78125 -12.064,15.118 -31.66455,37.32485 -41.59375,47.09375 -2.7533,2.7088 -5,5.7679 -5,6.8125 0,1.044 -5.1507,7.78895 -11.4375,14.96875 -6.2872,7.1796 -11.4375,13.78274 -11.4375,14.6875 0,1.508 -8.15525,11.34225 -23.78125,28.65625 -3.3543,3.7169 -6.09375,8.3899 -6.09375,10.375 0,4.057 33.07295,38.7797 40.78125,42.8125 7.874,4.119 11.181,2.98625 25.5,-8.84375 20.10651,-16.61132 24.64517,-18.42711 28.21875,-21.71875 l 30.5,-28.09375 c 2.11215,-1.94552 3.76526,-4.47566 5.5625,-5.4375 2.3367,-1.2505 5.6264,-4.61435 7.3125,-7.46875 1.686,-2.854 8.34185,-10.4999 14.78125,-17 15.276,-15.42 26.62632,-29.9934 26.96875,-34.5625 0.71,-9.472 -1.1805,-12.92825 -15.9375,-29.15625 -8.488,-9.334 -18.65295,-21.32175 -22.59375,-26.65625 -4.0774,-5.5195 -9.61635,-10.7257 -12.84375,-12.0625 -1.62825,-0.6745 -2.81435,-1.20677 -4.03125,-1.1875 z M 314.8194,272.5627 c -2.47595,-0.0606 -8.57419,4.66103 -15.66545,6.51095 -8.104,2.1142 -16.382,4.98032 -22.1852,5.7701 -13.683,1.8627 -26.95233,7.87594 -45.08589,7.35158 -7.42486,-0.2147 -12.52837,-16.09214 -22.74648,-18.7429 -8.32337,-2.15924 -13.35553,15.33064 -7.76978,17.27937 -1.332,3.472 32.4068,24.5036 41.0084,27.0807 3.631,1.0878 11.71985,5.5733 17.96875,9.9375 6.2484,4.3643 12.5492,7.9335 14,7.9375 5.977,0.017 13.62091,-13.37084 20.0625,-20.40625 4.63054,-5.05741 9.13591,-10.24207 13.34375,-15.65625 7.48861,-9.63551 27.68998,-27.37692 21.13828,-29.89102 -0.16575,-0.0636 -13.71517,2.83737 -14.06888,2.82872 z"
         id="path2874" inkscape:connector-curvature="0"
         sodipodi:nodetypes="scccscscsscccsccccscsscccssscsccscccscaccssscccscscsscscccsscscazzscscccccccccsssssszcccscscczcccccacscsscscscccccccsccccssscccsscaascscscscscssssscccsscsscccccssssscccccccccsssssccsssssscscccccsssssssccccscccccccccccsssscscscsssccscsscscscssccccaacc"
         transform="translate(80.95799,147.72)" />
   </g>
   <metadata id="metadata6">
      <rdf:RDF>
         <cc:Work>
            <dc:format>image/svg+xml</dc:format>
            <dc:type rdf:resource="http://purl.org/dc/dcmitype/StillImage" />
            <cc:license rdf:resource="http://creativecommons.org/licenses/publicdomain/" />
            <dc:publisher>
               <cc:Agent rdf:about="http://openclipart.org/">
                  <dc:title>Openclipart</dc:title>
               </cc:Agent>
            </dc:publisher>
         </cc:Work>
         <cc:License rdf:about="http://creativecommons.org/licenses/publicdomain/">
            <cc:permits rdf:resource="http://creativecommons.org/ns#Reproduction" />
            <cc:permits rdf:resource="http://creativecommons.org/ns#Distribution" />
            <cc:permits rdf:resource="http://creativecommons.org/ns#DerivativeWorks" />
         </cc:License>
      </rdf:RDF>
   </metadata>
</svg>