<?xml version="1.0" encoding="utf-8"?>
<!-- Svg Vector Icons : http://www.onlinewebfonts.com/icon -->
<!DOCTYPE svg PUBLIC "-//W3C//DTD SVG 1.1//EN" "http://www.w3.org/Graphics/SVG/1.1/DTD/svg11.dtd">
<svg version="1.1" xmlns="http://www.w3.org/2000/svg" xmlns:xlink="http://www.w3.org/1999/xlink" x="0px" y="0px" viewBox="0 0 1000 1000" enable-background="new 0 0 1000 1000" xml:space="preserve">
<metadata> Svg Vector Icons : http://www.onlinewebfonts.com/icon </metadata>
<g><g><path d="M977.9,138C871.7,57.5,708.4,9.5,540.9,9.5C333.8,9.5,165,81.8,77.8,207.9c-40.9,59.2-63.6,129.3-67.3,208.4c-3.3,70.4,8.5,148.3,35.2,232.1c90.9-272.6,344.9-486,637.6-486c0,0-273.9,72.1-446.2,295.4c-0.1,0.1-2.4,3-6.3,8.3c-34.6,46.3-64.7,98.9-87.3,158.5c-38.2,90.9-73.6,215.6-73.6,365.9h122.7c0,0-18.6-117.1,13.8-251.9c53.6,7.2,101.5,10.8,144.6,10.8c112.8,0,193-24.4,252.4-76.8c53.3-46.9,82.6-110,113.7-176.8c47.5-102,101.3-217.6,257.5-306.8c8.9-5.1,14.7-14.4,15.4-24.6C990.6,154.1,986.1,144.2,977.9,138L977.9,138z"/></g></g>
</svg>